<svg width="28" height="28" viewBox="0 0 28 28" fill="none" xmlns="http://www.w3.org/2000/svg">
<g clip-path="url(#clip0_67_15962)">
<path d="M0.563111 4.88133C0.252 4.88133 0 4.62933 0 4.31978V0.561556C0 0.252 0.252 0 0.563111 0H4.088C4.39911 0 4.65111 0.252 4.65111 0.561556C4.65111 0.871111 4.39911 1.12311 4.088 1.12311H1.12622V4.31667C1.12622 4.62622 0.875778 4.87978 0.564667 4.87978C0.564667 4.87978 0.564667 4.88133 0.563111 4.88133ZM28 4.31978V0.561556C28 0.252 27.748 0 27.4369 0H23.912C23.6009 0 23.3489 0.252 23.3489 0.561556C23.3489 0.871111 23.6009 1.12311 23.912 1.12311H26.8738V4.31667C26.8738 4.62622 27.1258 4.87822 27.4369 4.87822C27.748 4.87822 27.9984 4.62622 28 4.31667V4.31978ZM4.65111 27.4384C4.65111 27.1289 4.39911 26.8769 4.088 26.8769H1.12622V23.6833C1.12622 23.3738 0.874222 23.1218 0.563111 23.1218C0.252 23.1218 0 23.3738 0 23.6833V27.44C0 27.7496 0.253556 28 0.563111 28H4.088C4.39911 28 4.65111 27.748 4.65111 27.4384ZM28 27.44V23.6833C28 23.3738 27.748 23.1218 27.4369 23.1218C27.1258 23.1218 26.8753 23.3738 26.8738 23.6833V26.8769H23.912C23.6009 26.8769 23.3489 27.1289 23.3489 27.44C23.3489 27.7496 23.6009 28.0016 23.912 28.0016H27.4369C27.7464 28.0016 27.9984 27.7511 28 27.4416V27.44Z" fill="#76BC2D"/>
<path d="M21.5664 12.5175C21.5664 18.4628 14.3688 23.2617 12.8055 24.2526C12.6188 24.3553 12.3933 24.3553 12.205 24.2526C10.5359 23.1839 3.31348 18.385 3.31348 12.5175V5.26705C3.31348 4.9606 3.55459 4.70705 3.86103 4.69305C9.46725 4.53594 8.19014 2.08594 12.3886 2.08594C16.587 2.08594 15.2835 4.53749 20.8897 4.69305C21.1961 4.70705 21.4373 4.95905 21.4373 5.26705L21.5679 12.5159L21.5664 12.5175Z" fill="#0078D4"/>
<path d="M12.5068 23.1202C5.22214 18.3539 4.42725 14.1275 4.42725 12.5175V5.78504C7.3408 5.62015 8.51058 4.79415 9.46102 4.12371C10.2217 3.58704 10.7724 3.19971 12.387 3.19971C14.0017 3.19971 14.5446 3.58704 15.299 4.12215C16.2432 4.7926 17.4068 5.6186 20.3312 5.78504L20.4526 12.5362C20.4526 13.807 19.8739 18.343 12.5052 23.1202H12.5068Z" fill="url(#paint0_linear_67_15962)"/>
<path opacity="0.7" d="M18.2544 6.73242H12.9049C12.7837 6.73242 12.6855 6.83062 12.6855 6.95175V7.58798C12.6855 7.70911 12.7837 7.80731 12.9049 7.80731H18.2544C18.3756 7.80731 18.4738 7.70911 18.4738 7.58798V6.95175C18.4738 6.83062 18.3756 6.73242 18.2544 6.73242Z" fill="white"/>
<path opacity="0.6" d="M18.2544 8.93188H12.9049C12.7837 8.93188 12.6855 9.03008 12.6855 9.15122V9.78744C12.6855 9.90857 12.7837 10.0068 12.9049 10.0068H18.2544C18.3756 10.0068 18.4738 9.90857 18.4738 9.78744V9.15122C18.4738 9.03008 18.3756 8.93188 18.2544 8.93188Z" fill="white"/>
<path opacity="0.3" d="M13.1414 15.5291H6.62363C6.5025 15.5291 6.4043 15.6273 6.4043 15.7484V16.3846C6.4043 16.5057 6.5025 16.6039 6.62363 16.6039H13.1414C13.2625 16.6039 13.3607 16.5057 13.3607 16.3846V15.7484C13.3607 15.6273 13.2625 15.5291 13.1414 15.5291Z" fill="white"/>
<path opacity="0.4" d="M18.2561 13.3311H6.62363C6.5025 13.3311 6.4043 13.4293 6.4043 13.5504V14.1866C6.4043 14.3077 6.5025 14.4059 6.62363 14.4059H18.2561C18.3772 14.4059 18.4754 14.3077 18.4754 14.1866V13.5504C18.4754 13.4293 18.3772 13.3311 18.2561 13.3311Z" fill="white"/>
<path opacity="0.5" d="M17.1936 11.1316H6.62207C6.5018 11.1316 6.4043 11.2291 6.4043 11.3494V11.9887C6.4043 12.109 6.5018 12.2065 6.62207 12.2065H17.1936C17.3139 12.2065 17.4114 12.109 17.4114 11.9887V11.3494C17.4114 11.2291 17.3139 11.1316 17.1936 11.1316Z" fill="white"/>
<path d="M6.58785 6.73242H11.6932C11.7943 6.73242 11.8767 6.80398 11.8767 6.89109V9.8482C11.8767 9.93687 11.7943 10.0069 11.6932 10.0069H6.58785C6.48674 10.0069 6.4043 9.93531 6.4043 9.8482V6.89109C6.4043 6.80242 6.48674 6.73242 6.58785 6.73242Z" fill="url(#paint1_linear_67_15962)"/>
<path d="M19.365 25.8923C22.322 25.8923 24.7192 23.4951 24.7192 20.5381C24.7192 17.581 22.322 15.1838 19.365 15.1838C16.4079 15.1838 14.0107 17.581 14.0107 20.5381C14.0107 23.4951 16.4079 25.8923 19.365 25.8923Z" fill="#76BC2D"/>
<path d="M18.8161 22.3316L18.3245 22.8231C18.2405 22.9071 18.1052 22.9071 18.0212 22.8231L16.0674 20.8694C15.9834 20.7854 15.9834 20.65 16.0674 20.566L16.4081 20.2254C16.4921 20.1414 16.6274 20.1414 16.7114 20.2254L18.8161 22.33V22.3316Z" fill="white"/>
<path d="M18.0306 22.8295L17.5391 22.3379L22.0315 17.8455C22.1155 17.7615 22.2508 17.7615 22.3348 17.8455L22.6755 18.1861C22.7595 18.2701 22.7595 18.4055 22.6755 18.4895L18.334 22.831C18.25 22.915 18.1146 22.915 18.0306 22.831V22.8295Z" fill="#F0F0F0"/>
</g>
<defs>
<linearGradient id="paint0_linear_67_15962" x1="12.4399" y1="23.1202" x2="12.4399" y2="3.19971" gradientUnits="userSpaceOnUse">
<stop stop-color="#0078D4"/>
<stop offset="0.82" stop-color="#5EA0EF"/>
</linearGradient>
<linearGradient id="paint1_linear_67_15962" x1="9.14052" y1="6.73242" x2="9.14052" y2="10.0069" gradientUnits="userSpaceOnUse">
<stop stop-color="white" stop-opacity="0.7"/>
<stop offset="1" stop-color="white" stop-opacity="0.6"/>
</linearGradient>
<clipPath id="clip0_67_15962">
<rect width="28" height="28" fill="white"/>
</clipPath>
</defs>
</svg>
