<svg width="28" height="28" viewBox="0 0 28 28" fill="none" xmlns="http://www.w3.org/2000/svg">
<path d="M14.0018 25.8235C20.5318 25.8235 25.8254 20.5299 25.8254 13.9999C25.8254 7.46988 20.5318 2.17627 14.0018 2.17627C7.47184 2.17627 2.17822 7.46988 2.17822 13.9999C2.17822 20.5299 7.47184 25.8235 14.0018 25.8235Z" fill="#0078D4"/>
<path d="M14.0021 24.2236C19.6482 24.2236 24.2253 19.6465 24.2253 14.0004C24.2253 8.35421 19.6482 3.7771 14.0021 3.7771C8.35592 3.7771 3.77881 8.35421 3.77881 14.0004C3.77881 19.6465 8.35592 24.2236 14.0021 24.2236Z" fill="#107FD9"/>
<path d="M2.17747 15.5938C1.96811 15.5939 1.76078 15.5528 1.56734 15.4727C1.3739 15.3927 1.19813 15.2753 1.05009 15.1272C0.902053 14.9792 0.784641 14.8034 0.704578 14.61C0.624516 14.4165 0.583377 14.2092 0.583496 13.9999C0.583496 6.60111 6.60232 0.582275 14.0011 0.582275C14.4238 0.582275 14.8293 0.750209 15.1282 1.04914C15.4271 1.34806 15.595 1.7535 15.595 2.17625C15.595 2.59899 15.4271 3.00442 15.1282 3.30335C14.8293 3.60228 14.4238 3.77022 14.0011 3.77022C11.289 3.77311 8.68892 4.85168 6.77115 6.76928C4.85337 8.68689 3.77457 11.2869 3.77144 13.9989C3.77156 14.2083 3.73042 14.4157 3.65036 14.6092C3.57031 14.8027 3.45292 14.9785 3.3049 15.1266C3.15687 15.2748 2.98111 15.3922 2.78766 15.4724C2.59421 15.5526 2.38687 15.5938 2.17747 15.5938V15.5938Z" fill="#50E6FF"/>
<path d="M14.0012 27.4184C13.5784 27.4184 13.173 27.2505 12.8741 26.9515C12.5752 26.6526 12.4072 26.2472 12.4072 25.8244C12.4072 25.4017 12.5752 24.9963 12.8741 24.6973C13.173 24.3984 13.5784 24.2305 14.0012 24.2305C16.7132 24.2266 19.313 23.1473 21.2304 21.2293C23.1477 19.3112 24.2261 16.711 24.229 13.999C24.229 13.5763 24.397 13.1708 24.6959 12.8719C24.9948 12.573 25.4002 12.405 25.823 12.405C26.2457 12.405 26.6512 12.573 26.9501 12.8719C27.249 13.1708 27.417 13.5763 27.417 13.999C27.417 21.3987 21.3999 27.4184 14.0012 27.4184Z" fill="#50E6FF"/>
<path d="M14.0018 22.3121C18.5926 22.3121 22.3141 18.5906 22.3141 13.9998C22.3141 9.40905 18.5926 5.6875 14.0018 5.6875C9.41101 5.6875 5.68945 9.40905 5.68945 13.9998C5.68945 18.5906 9.41101 22.3121 14.0018 22.3121Z" fill="#5EA0EF"/>
<path d="M14.0019 18.5677C16.5251 18.5677 18.5707 16.5222 18.5707 13.9989C18.5707 11.4757 16.5251 9.43018 14.0019 9.43018C11.4786 9.43018 9.43311 11.4757 9.43311 13.9989C9.43311 16.5222 11.4786 18.5677 14.0019 18.5677Z" fill="#005BA1"/>
<path d="M15.6278 16.6694C16.324 16.6694 16.8884 16.105 16.8884 15.4088C16.8884 14.7126 16.324 14.1482 15.6278 14.1482C14.9316 14.1482 14.3672 14.7126 14.3672 15.4088C14.3672 16.105 14.9316 16.6694 15.6278 16.6694Z" fill="white"/>
</svg>
