<svg width="28" height="28" viewBox="0 0 28 28" fill="none" xmlns="http://www.w3.org/2000/svg">
<g clip-path="url(#clip0_67_15994)">
<path d="M0.563111 4.88133C0.414034 4.88133 0.27104 4.82222 0.16548 4.71695C0.0599212 4.61168 0.000411816 4.46885 0 4.31978L0 0.561556C0.000411816 0.412479 0.0599212 0.269649 0.16548 0.164381C0.27104 0.0591135 0.414034 -5.68803e-07 0.563111 0L4.088 0C4.23693 0 4.37977 0.0591637 4.48508 0.164476C4.59039 0.269788 4.64956 0.412622 4.64956 0.561556C4.64956 0.710489 4.59039 0.853323 4.48508 0.958635C4.37977 1.06395 4.23693 1.12311 4.088 1.12311H1.12622V4.31667C1.12622 4.46589 1.06716 4.60904 0.961937 4.71485C0.856713 4.82066 0.713886 4.88051 0.564667 4.88133H0.563111ZM28 4.31978V0.561556C27.9996 0.412479 27.9401 0.269649 27.8345 0.164381C27.729 0.0591135 27.586 -5.68803e-07 27.4369 0L23.912 0C23.7631 0 23.6202 0.0591637 23.5149 0.164476C23.4096 0.269788 23.3504 0.412622 23.3504 0.561556C23.3504 0.710489 23.4096 0.853323 23.5149 0.958635C23.6202 1.06395 23.7631 1.12311 23.912 1.12311H26.8676V4.31667C26.8676 4.46601 26.9269 4.60924 27.0325 4.71485C27.1381 4.82045 27.2813 4.87978 27.4307 4.87978C27.58 4.87978 27.7232 4.82045 27.8288 4.71485C27.9345 4.60924 27.9938 4.46601 27.9938 4.31667L28 4.31978ZM4.65111 27.4384C4.65111 27.3646 4.63654 27.2914 4.60822 27.2232C4.5799 27.155 4.5384 27.093 4.48609 27.0408C4.43378 26.9886 4.37169 26.9473 4.30338 26.9192C4.23507 26.8911 4.16188 26.8767 4.088 26.8769H1.12622V23.6833C1.12622 23.534 1.06689 23.3908 0.961291 23.2852C0.855687 23.1796 0.712457 23.1202 0.563111 23.1202C0.413765 23.1202 0.270535 23.1796 0.164931 23.2852C0.0593276 23.3908 0 23.534 0 23.6833L0 27.44C0.000822149 27.5888 0.0605125 27.7312 0.166027 27.8362C0.271542 27.9411 0.414302 28 0.563111 28H4.088C4.23708 28 4.38007 27.9409 4.48563 27.8356C4.59119 27.7304 4.6507 27.5875 4.65111 27.4384ZM28 27.4384V23.6833C28 23.534 27.9407 23.3908 27.8351 23.2852C27.7295 23.1796 27.5862 23.1202 27.4369 23.1202C27.2875 23.1202 27.1443 23.1796 27.0387 23.2852C26.9331 23.3908 26.8738 23.534 26.8738 23.6833V26.8769H23.9182C23.8445 26.8769 23.7715 26.8914 23.7033 26.9196C23.6352 26.9479 23.5733 26.9892 23.5211 27.0414C23.469 27.0935 23.4276 27.1554 23.3994 27.2235C23.3712 27.2917 23.3567 27.3647 23.3567 27.4384C23.3567 27.5122 23.3712 27.5852 23.3994 27.6533C23.4276 27.7215 23.469 27.7834 23.5211 27.8355C23.5733 27.8877 23.6352 27.929 23.7033 27.9573C23.7715 27.9855 23.8445 28 23.9182 28H27.4431C27.5908 27.9984 27.732 27.9387 27.8362 27.834C27.9404 27.7292 27.9992 27.5862 28 27.4384Z" fill="#FAA21D"/>
<path d="M25.9532 4.14712V20.4229C25.9579 20.5523 25.9116 20.6784 25.8244 20.7741C25.7371 20.8698 25.6158 20.9274 25.4865 20.9347H16.5327C16.4168 20.9347 16.3056 20.8886 16.2237 20.8067C16.1417 20.7247 16.0956 20.6135 16.0956 20.4976V12.8582C16.065 12.4935 15.8995 12.1533 15.6314 11.9042C15.3633 11.655 15.0118 11.5149 14.6458 11.5111H11.3232C11.2081 11.5103 11.0979 11.4641 11.0167 11.3826C10.9354 11.301 10.8896 11.1907 10.8892 11.0756V4.14712C10.8833 4.01723 10.929 3.89029 11.0165 3.79408C11.104 3.69788 11.226 3.64024 11.3558 3.63379H25.4803C25.611 3.63945 25.7341 3.69664 25.8227 3.79284C25.9113 3.88904 25.9582 4.01642 25.9532 4.14712Z" fill="url(#paint0_linear_67_15994)"/>
<path d="M23.5173 9.96336H20.7328C20.6014 9.94696 20.4815 9.87992 20.3987 9.7765C20.3159 9.67308 20.2767 9.54144 20.2895 9.40958C20.2767 9.27755 20.3158 9.14572 20.3986 9.04205C20.4814 8.93838 20.6012 8.87102 20.7328 8.85425H23.5173C23.6491 8.87065 23.7694 8.93785 23.8525 9.04156C23.9356 9.14528 23.9749 9.27731 23.9622 9.40958C23.9749 9.54168 23.9355 9.67353 23.8524 9.77699C23.7693 9.88045 23.649 9.94733 23.5173 9.96336Z" fill="#F78D1E"/>
<path d="M14.6441 12.1692H1.55563C1.35566 12.1754 1.16477 12.254 1.01852 12.3906C0.872271 12.5271 0.780653 12.7121 0.760742 12.9112V21.7576C0.779056 21.9572 0.870233 22.143 1.01686 22.2796C1.16349 22.4162 1.35529 22.4939 1.55563 22.4981H5.8863C5.90264 22.4979 5.91886 22.5009 5.93404 22.507C5.94922 22.513 5.96305 22.522 5.97475 22.5334C5.98645 22.5448 5.99579 22.5584 6.00223 22.5735C6.00867 22.5885 6.01209 22.6046 6.0123 22.621V24.1112C6.02278 24.1873 6.06234 24.2564 6.12267 24.3039C6.183 24.3515 6.2594 24.3739 6.33585 24.3663C6.38442 24.3601 6.43053 24.3413 6.46963 24.3119L6.90208 24.0303L8.09985 23.237L9.18874 22.5121C9.21305 22.4966 9.24087 22.4875 9.26963 22.4856H14.6441C14.844 22.4871 15.0371 22.4128 15.1845 22.2778C15.332 22.1427 15.4229 21.9569 15.439 21.7576V12.9112C15.4213 12.7112 15.3304 12.5249 15.1837 12.3879C15.037 12.2509 14.8448 12.173 14.6441 12.1692Z" fill="url(#paint1_linear_67_15994)"/>
<path d="M5.13362 19.3076H3.00095C2.75517 19.3076 2.55762 19.0432 2.55762 18.7165C2.55762 18.3898 2.75517 18.127 3.00095 18.127H5.13362C5.37939 18.127 5.57851 18.3914 5.57851 18.7165C5.57851 19.0416 5.38406 19.3076 5.13362 19.3076Z" fill="#9CEBFF"/>
<path d="M18.8532 9.96341H13.3201C13.2448 9.96739 13.1695 9.95601 13.0987 9.92994C13.028 9.90387 12.9633 9.86367 12.9086 9.81178C12.8539 9.7599 12.8103 9.69741 12.7805 9.62814C12.7508 9.55886 12.7354 9.48425 12.7354 9.40885C12.7354 9.33345 12.7508 9.25884 12.7805 9.18956C12.8103 9.12029 12.8539 9.0578 12.9086 9.00592C12.9633 8.95403 13.028 8.91383 13.0987 8.88776C13.1695 8.86169 13.2448 8.8503 13.3201 8.85429H18.8532C18.9285 8.8503 19.0038 8.86169 19.0746 8.88776C19.1453 8.91383 19.21 8.95403 19.2648 9.00592C19.3195 9.0578 19.363 9.12029 19.3928 9.18956C19.4226 9.25884 19.4379 9.33345 19.4379 9.40885C19.4379 9.48425 19.4226 9.55886 19.3928 9.62814C19.363 9.69741 19.3195 9.7599 19.2648 9.81178C19.21 9.86367 19.1453 9.90387 19.0746 9.92994C19.0038 9.95601 18.9285 9.96739 18.8532 9.96341ZM24.0721 12.3745C24.0717 12.2275 24.013 12.0866 23.9089 11.9828C23.8048 11.879 23.6638 11.8207 23.5168 11.8207H18.2279C18.1526 11.8167 18.0773 11.8281 18.0065 11.8542C17.9358 11.8803 17.8711 11.9205 17.8164 11.9724C17.7616 12.0242 17.7181 12.0867 17.6883 12.156C17.6585 12.2253 17.6432 12.2999 17.6432 12.3753C17.6432 12.4507 17.6585 12.5253 17.6883 12.5946C17.7181 12.6639 17.7616 12.7263 17.8164 12.7782C17.8711 12.8301 17.9358 12.8703 18.0065 12.8964C18.0773 12.9225 18.1526 12.9338 18.2279 12.9298H23.5168C23.6641 12.9298 23.8053 12.8713 23.9095 12.7672C24.0136 12.6631 24.0721 12.5218 24.0721 12.3745ZM9.089 15.7874C9.089 15.7146 9.07462 15.6424 9.0467 15.5751C9.01877 15.5078 8.97784 15.4467 8.92625 15.3953C8.87466 15.3438 8.81343 15.3031 8.74607 15.2753C8.6787 15.2476 8.60652 15.2334 8.53367 15.2336H3.00056C2.85368 15.2336 2.71283 15.292 2.60898 15.3958C2.50512 15.4997 2.44678 15.6405 2.44678 15.7874C2.44678 15.9343 2.50512 16.0751 2.60898 16.179C2.71283 16.2828 2.85368 16.3412 3.00056 16.3412H8.53367C8.60652 16.3414 8.6787 16.3272 8.74607 16.2995C8.81343 16.2717 8.87466 16.231 8.92625 16.1795C8.97784 16.1281 9.01877 16.067 9.0467 15.9997C9.07462 15.9324 9.089 15.8603 9.089 15.7874ZM13.7557 18.7523C13.7553 18.6053 13.6966 18.4644 13.5925 18.3606C13.4884 18.2568 13.3473 18.1985 13.2003 18.1985H7.01856C6.94326 18.1945 6.86794 18.2059 6.79719 18.232C6.72643 18.258 6.66173 18.2982 6.60702 18.3501C6.55231 18.402 6.50874 18.4645 6.47897 18.5338C6.4492 18.6031 6.43384 18.6777 6.43384 18.7531C6.43384 18.8285 6.4492 18.9031 6.47897 18.9724C6.50874 19.0416 6.55231 19.1041 6.60702 19.156C6.66173 19.2079 6.72643 19.2481 6.79719 19.2742C6.86794 19.3002 6.94326 19.3116 7.01856 19.3076H13.1988C13.2717 19.3076 13.3439 19.2933 13.4113 19.2654C13.4787 19.2374 13.5399 19.1965 13.5915 19.145C13.643 19.0934 13.6839 19.0322 13.7118 18.9648C13.7397 18.8974 13.7541 18.8252 13.7541 18.7523H13.7557Z" fill="#F2F2F2"/>
</g>
<defs>
<linearGradient id="paint0_linear_67_15994" x1="18.4196" y1="3.37557" x2="18.4196" y2="20.916" gradientUnits="userSpaceOnUse">
<stop offset="0.001" stop-color="#FFB34D"/>
<stop offset="1" stop-color="#FAA21D"/>
</linearGradient>
<linearGradient id="paint1_linear_67_15994" x1="8.0983" y1="11.8052" x2="8.0983" y2="24.4207" gradientUnits="userSpaceOnUse">
<stop stop-color="#50E6FF"/>
<stop offset="1" stop-color="#32BEDD"/>
</linearGradient>
<clipPath id="clip0_67_15994">
<rect width="28" height="28" fill="white"/>
</clipPath>
</defs>
</svg>
